{"title":"Chammak challo 1920x1080 by RoYStaR","uid":6693997,"size":103469127,"categoryP":"video","categoryS":"music_videos","magnet":"?xt=urn:btih:fb77e8b33dead3d42c960deafae6637cc212d81d&amp;dn=Chammak+challo+1920x1080+by+RoYStaR&amp;tr=udp%3A%2F%2Ftracker.openbittorrent.com%3A80&amp;tr=udp%3A%2F%2Fopen.demonii.com%3A1337&amp;tr=udp%3A%2F%2Ftracker.coppersurfer.tk%3A6969&amp;tr=udp%3A%2F%2Fexodus.desync.com%3A6969","seeders":0,"leechers":0,"uploader":"royhere","files":7,"time":1316697593,"description":"Chammak challo 1920x1080 by RoYStaR\n\nGeneral\nComplete name                    : D:\\\\TOORENT FOR UPLOAD\\\\Chammak challo 1920x1080 by RoYStaR\\\\Chammak challo 1920x1080 by RoYStaR.mp4\nFormat                           : MPEG-4\nFormat profile                   : Base Media / Version 2\nCodec ID                         : mp42\nFile size                        : 97.4 MiB\nDuration                         : 2mn 16s\nOverall bit rate                 : 5 968 Kbps\n\nVideo\nID                               : 1\nFormat                           : AVC\nFormat/Info                      : Advanced Video Codec\nFormat profile                   : &lt;a class=&quot;__cf_email__&quot; href=&quot;/cdn-cgi/l/email-protection&quot; data-cfemail=&quot;b6fedfd1def6fa829886&quot;&gt;[email&amp;#160;protected]&lt;/a&gt;&lt;script data-cfhash='f9e31' type=&quot;text/javascript&quot;&gt;\n/* &lt;![CDATA[ */!function(){try{var t=&quot;currentScript&quot;in document?document.currentScript:function(){for(var t=document.getElementsByTagName(&quot;script&quot;),e=t.length;e--;)if(t[e].getAttribute(&quot;data-cfhash&quot;))return t[e]}();if(t&amp;&amp;t.previousSibling){var e,r,n,i,c=t.previousSibling,a=c.getAttribute(&quot;data-cfemail&quot;);if(a){for(e=&quot;&quot;,r=parseInt(a.substr(0,2),16),n=2;a.length-n;n+=2)i=parseInt(a.substr(n,2),16)^r,e+=String.fromCharCode(i);e=document.createTextNode(e),c.parentNode.replaceChild(e,c)}t.parentNode.removeChild(t);}}catch(u){}}()/* ]]&gt; */&lt;/script&gt;\nFormat settings, CABAC           : Yes\nFormat settings, ReFrames        : 1 frame\nFormat settings, GOP             : M=1, N=44\nCodec ID                         : avc1\nCodec ID/Info                    : Advanced Video Coding\nDuration                         : 2mn 16s\nBit rate                         : 5 812 Kbps\nMaximum bit rate                 : 9 907 Kbps\nWidth                            : 1 920 pixels\nHeight                           : 1 080 pixels\nDisplay aspect ratio             : 16:9\nFrame rate mode                  : Constant\nFrame rate                       : 25.000 fps\nColor space                      : YUV\nChroma subsampling               : 4:2:0\nBit depth                        : 8 bits\nScan type                        : Progressive\nBits/(Pixel*Frame)               : 0.112\nStream size                      : 94.8 MiB (97%)\nTagged date                      : UTC 2011-09-19 13:18:43\n\nAudio\nID                               : 2\nFormat                           : AAC\nFormat/Info                      : Advanced Audio Codec\nFormat profile                   : LC\nCodec ID                         : 40\nDuration                         : 2mn 16s\nBit rate mode                    : Variable\nBit rate                         : 152 Kbps\nMaximum bit rate                 : 173 Kbps\nChannel(s)                       : 2 channels\nChannel positions                : Front: L R\nSampling rate                    : 44.1 KHz\nCompression mode                 : Lossy\nStream size                      : 2.48 MiB (3%)\n\n\nScreenshot available on the blog.. ","torrent":{"xt":"urn:btih:fb77e8b33dead3d42c960deafae6637cc212d81d","amp;dn":"Chammak+challo+1920x1080+by+RoYStaR","amp;tr":["udp%3A%2F%2Ftracker.openbittorrent.com%3A80","udp%3A%2F%2Fopen.demonii.com%3A1337","udp%3A%2F%2Ftracker.coppersurfer.tk%3A6969","udp%3A%2F%2Fexodus.desync.com%3A6969"],"infoHash":"fb77e8b33dead3d42c960deafae6637cc212d81d","infoHashBuffer":{"type":"Buffer","data":[251,119,232,179,61,234,211,212,44,150,13,234,250,230,99,124,194,18,216,29]},"announce":[],"urlList":[]}}